<?xml version="1.0" encoding="UTF-8"?>
<svg id="Layer_1" data-name="Layer 1" xmlns="http://www.w3.org/2000/svg" viewBox="0 0 511.05 514">
  <defs>
    <style>
      .cls-1 {
        fill: #666766;
        stroke: #6d6e71;
        stroke-miterlimit: 10;
        stroke-width: 2px;
      }
    </style>
  </defs>
  <path class="cls-1" d="M280.97,213.79c0-10.18,0-18.72,0-27.26-.01-9.85-5.84-15.76-15.52-15.77-25.06,0-50.13,0-75.19,0-9.87,0-15.94,6.1-15.94,16.09-.01,103.27-.01,206.55,0,309.82,0,9.89,6.25,16.08,16.2,16.09,24.42,.02,48.84,0,73.26,0,11.28,0,17.2-5.86,17.2-17.02,0-50.99,.13-101.99-.08-152.98-.06-15.81,2.32-31.14,7.97-45.78,3.94-10.22,9.03-20.06,17.73-27.3,14.1-11.74,30.44-14.57,48.08-11.47,9.72,1.71,18.68,5.39,25.66,12.57,13.58,13.96,18.53,31.78,18.74,50.31,.65,57.2,.26,114.41,.22,171.62,0,12.65,7.13,20.68,20.04,20.28,23.97-.74,47.99-.69,71.97,.01,10.51,.31,18.9-8.97,18.76-18.5-.54-37.06,.11-74.14-.32-111.2-.35-30.48-1.42-60.95-2.53-91.42-.72-19.67-5.13-38.66-12.25-57.01-17.23-44.45-49.83-65.19-94.06-68.9-16.13-1.35-32.69,.59-48.9,2.39-21.13,2.35-39.48,11.55-54.58,26.64-5.48,5.48-10.25,11.68-16.43,18.79ZM17.45,341.72c0,50.98,0,101.96,0,152.93,0,11.74,6.49,18.11,18.5,18.11,22.7,0,45.42-.54,68.09,.2,13.5,.44,20.24-8.47,20.2-20.19-.24-75.82-.13-151.65-.13-227.47,0-25.92,.03-51.83-.01-77.75-.02-9.79-6.99-16.79-16.58-16.8-24.41,0-48.83,0-73.24,0-10.8,0-16.82,5.99-16.83,16.74,0,51.41,0,102.81,0,154.22ZM139.54,70.5C140.64,32.85,108.71,1.79,72.83,1.02,31.64,.13,1.06,32.28,1,70.11c-.06,38.56,30.83,69.29,69.01,69.69,38.23,.4,70.36-31.41,69.53-69.3Z"/>
  <path class="cls-1" d="M280.97,213.79c6.18-7.12,10.94-13.32,16.43-18.79,15.09-15.09,33.44-24.29,54.58-26.64,16.21-1.8,32.77-3.74,48.9-2.39,44.23,3.7,76.83,24.44,94.06,68.9,7.12,18.36,11.53,37.34,12.25,57.01,1.11,30.46,2.18,60.94,2.53,91.42,.43,37.06-.22,74.14,.32,111.2,.14,9.53-8.25,18.81-18.76,18.5-23.97-.7-48-.75-71.97-.01-12.9,.4-20.04-7.63-20.04-20.28,.04-57.21,.43-114.42-.22-171.62-.21-18.53-5.16-36.34-18.74-50.31-6.98-7.18-15.94-10.86-25.66-12.57-17.64-3.1-33.97-.27-48.08,11.47-8.7,7.24-13.78,17.08-17.73,27.3-5.66,14.65-8.04,29.97-7.97,45.78,.21,50.99,.08,101.99,.08,152.98,0,11.16-5.92,17.02-17.2,17.02-24.42,0-48.84,.01-73.26,0-9.95,0-16.19-6.2-16.2-16.09-.01-103.27-.01-206.55,0-309.82,0-10,6.08-16.09,15.94-16.09,25.06,0,50.13,0,75.19,0,9.69,0,15.51,5.92,15.52,15.77,.01,8.54,0,17.08,0,27.26Z"/>
  <path class="cls-1" d="M17.45,341.72c0-51.41,0-102.81,0-154.22,0-10.75,6.02-16.74,16.83-16.74,24.41,0,48.83,0,73.24,0,9.59,0,16.57,7.01,16.58,16.8,.04,25.92,.01,51.83,.01,77.75,0,75.82-.12,151.65,.13,227.47,.04,11.72-6.7,20.63-20.2,20.19-22.68-.74-45.39-.2-68.09-.2-12,0-18.5-6.37-18.5-18.11,0-50.98,0-101.96,0-152.93Z"/>
  <path class="cls-1" d="M139.54,70.5c.83,37.89-31.3,69.7-69.53,69.3C31.83,139.39,.94,108.67,1,70.11,1.06,32.28,31.64,.13,72.83,1.02c35.88,.77,67.81,31.83,66.72,69.48Z"/>
</svg>