<?xml version="1.0" encoding="UTF-8"?>
<svg id="Layer_1" data-name="Layer 1" xmlns="http://www.w3.org/2000/svg" viewBox="0 0 553.65 700">
  <defs>
    <style>
      .cls-1 {
        fill: #666;
      }
    </style>
  </defs>
  <path class="cls-1" d="M276.83,230.1c16.84,0,32.98-6.68,44.89-18.59,11.9-11.91,18.59-28.05,18.59-44.89s-6.69-32.98-18.59-44.89c-11.91-11.9-28.05-18.59-44.89-18.59s-32.98,6.69-44.89,18.59c-11.9,11.91-18.59,28.05-18.59,44.89s6.69,32.98,18.59,44.89c11.91,11.91,28.05,18.59,44.89,18.59Z"/>
  <path class="cls-1" d="M173.68,357.05h206.3c1.95,.31,3.92-.34,5.32-1.73,1.4-1.4,2.04-3.37,1.73-5.32v-4.41c.24-26.02-9.99-51.05-28.4-69.46-18.41-18.4-43.44-28.63-69.46-28.4h-24.69c-26.02-.23-51.05,10-69.46,28.4-18.41,18.41-28.64,43.44-28.4,69.46v4.41c-.31,1.95,.34,3.92,1.73,5.32,1.4,1.4,3.37,2.04,5.32,1.73h0Z"/>
  <path class="cls-1" d="M553.65,0H0V700H553.65V0Zm-52.9,647.1H52.89V52.9H500.75V647.1Z"/>
  <path class="cls-1" d="M121.66,426.7H441.69v52.9H121.66v-52.9Z"/>
  <path class="cls-1" d="M121.66,532.49H441.69v52.9H121.66v-52.9Z"/>
</svg>